<?xml version="1.0" standalone="no"?>
<!DOCTYPE svg PUBLIC "-//W3C//DTD SVG 20010904//EN"
 "http://www.w3.org/TR/2001/REC-SVG-20010904/DTD/svg10.dtd">
<svg version="1.0" xmlns="http://www.w3.org/2000/svg"
 width="1066.000000pt" height="1280.000000pt" viewBox="0 0 1066.000000 1280.000000"
 preserveAspectRatio="xMidYMid meet">
<metadata>
Created by potrace 1.15, written by Peter Selinger 2001-2017
</metadata>
<g transform="translate(0.000000,1280.000000) scale(0.100000,-0.100000)"
fill="#fff" stroke="none">
<path d="M4502 12706 c-350 -223 -597 -421 -843 -672 -562 -578 -875 -1250
-976 -2099 -22 -190 -25 -805 -5 -1015 34 -341 88 -689 178 -1125 30 -148 75
-369 100 -490 95 -463 123 -705 104 -881 -29 -268 -119 -464 -294 -639 -97
-97 -178 -155 -292 -210 -162 -78 -289 -105 -486 -105 -326 0 -542 81 -724
272 -251 262 -372 697 -404 1448 -6 140 -12 262 -13 270 -1 8 -34 -35 -74 -96
-528 -818 -798 -1852 -769 -2949 18 -707 167 -1321 461 -1900 657 -1296 1934
-2141 3755 -2484 85 -16 156 -28 158 -26 2 1 -52 30 -118 64 -1104 564 -1830
1359 -2150 2356 -135 421 -221 990 -220 1448 l1 132 38 -132 c190 -653 530
-1124 966 -1338 217 -106 378 -141 614 -132 200 8 337 45 520 143 551 293 914
954 992 1807 15 165 6 657 -15 827 -77 612 -262 1247 -550 1889 -30 69 -54
126 -53 127 1 1 49 -36 107 -82 817 -662 1307 -1458 1541 -2500 66 -296 111
-613 169 -1194 56 -551 104 -817 183 -997 92 -214 232 -340 434 -394 101 -27
313 -30 419 -6 394 90 776 427 1094 965 23 40 45 71 47 68 9 -9 -18 -416 -37
-546 -49 -351 -141 -635 -291 -905 -124 -223 -258 -395 -471 -600 -371 -359
-852 -649 -1553 -937 l-170 -70 175 6 c1022 34 2004 349 2815 904 448 306 860
716 1144 1137 536 794 736 1657 615 2650 -57 466 -182 963 -337 1341 -53 129
-132 290 -147 299 -7 4 -10 -51 -10 -169 0 -490 -70 -971 -186 -1283 -147
-395 -377 -623 -723 -714 -99 -27 -358 -37 -469 -19 -397 63 -729 345 -845
715 -41 132 -50 217 -44 412 9 296 51 488 252 1158 228 761 281 1019 292 1426
7 248 -4 383 -48 602 -68 345 -209 673 -421 984 -84 123 -244 323 -258 323 -4
0 -8 -48 -9 -107 -4 -273 -55 -575 -137 -803 -199 -551 -594 -887 -1154 -982
-98 -16 -404 -16 -500 1 -285 49 -557 161 -779 319 -111 78 -306 263 -393 371
-284 351 -468 823 -533 1366 -23 184 -30 536 -16 745 40 596 186 1252 427
1923 35 99 64 181 64 183 0 11 -26 -3 -148 -80z"/>
</g>
</svg>
